<svg version="1.1" id="Layer_1" xmlns="http://www.w3.org/2000/svg" xmlns:xlink="http://www.w3.org/1999/xlink" x="0px" y="0px"
	 width="100%" viewBox="0 0 1126 300" enable-background="new 0 0 1126 300" xml:space="preserve">
<path fill="#F8F9F8" opacity="1.000000" stroke="none" 
	d="
M759.000000,301.000000 
	C506.000000,301.000000 253.500000,301.000000 1.000000,301.000000 
	C1.000000,201.000000 1.000000,101.000000 1.000000,1.000000 
	C376.333344,1.000000 751.666687,1.000000 1127.000000,1.000000 
	C1127.000000,101.000000 1127.000000,201.000000 1127.000000,301.000000 
	C1004.500000,301.000000 882.000000,301.000000 759.000000,301.000000 
M1006.921997,256.087189 
	C1006.921997,253.175659 1006.921997,250.264130 1006.921997,247.093796 
	C1000.014160,247.093796 993.508850,247.093796 986.081543,246.910645 
	C969.720093,246.968597 953.358643,247.026550 936.258362,246.911041 
	C935.506531,246.970459 934.754700,247.029877 933.089172,246.905075 
	C929.188477,246.905075 925.287781,246.905075 920.890869,246.905075 
	C920.890869,242.186325 920.890869,238.091568 921.064697,233.079117 
	C921.010010,228.387161 920.955383,223.695206 921.079285,218.087585 
	C921.079285,213.642502 921.079285,209.197418 921.079285,204.251038 
	C946.668884,204.251038 971.720825,204.251038 996.851685,204.251038 
	C996.851685,194.488510 996.851685,185.245377 996.851685,175.559113 
	C971.526611,175.559113 946.462952,175.559113 921.361572,175.559113 
	C921.361572,162.200165 921.361572,149.290115 921.361572,135.954437 
	C935.284851,135.954437 948.908203,135.954437 962.531494,135.954437 
	C976.323425,135.954437 990.115417,135.954437 1003.991699,135.954437 
	C1003.991699,125.904053 1003.991699,116.217155 1003.991699,106.019638 
	C995.980347,106.019638 988.424500,106.019638 980.421143,106.019638 
	C983.133362,92.734261 986.739197,80.653503 996.602417,71.700157 
	C997.138611,71.856674 997.674866,72.013191 998.211060,72.169716 
	C998.211060,77.067345 998.211060,81.964966 998.211060,87.148926 
	C1003.937378,85.272858 1003.776184,80.118835 1006.214600,75.784004 
	C1007.553101,80.774055 1008.891663,85.764099 1010.331665,91.132347 
	C1014.832336,85.109894 1014.664795,79.061829 1011.222717,72.713829 
	C1011.621765,72.580460 1012.020874,72.447083 1012.419922,72.313705 
	C1014.311584,74.588913 1016.203247,76.864113 1018.517151,79.647163 
	C1019.923523,72.363037 1015.104309,69.113029 1009.876099,64.729607 
	C1013.941528,65.349632 1016.426392,65.728607 1018.911255,66.107574 
	C1019.096252,65.742340 1019.281189,65.377113 1019.466187,65.011879 
	C1017.381165,63.600796 1015.463623,61.707691 1013.165649,60.909397 
	C1010.692139,60.050140 1007.862000,60.217175 1005.173096,59.934917 
	C1005.446655,52.990322 1000.568665,47.991100 994.647095,48.276115 
	C995.867737,50.332119 997.085632,52.383503 998.676147,55.062435 
	C987.507019,52.834839 987.507019,52.834839 983.740540,55.276085 
	C987.391602,57.390278 991.271851,59.637177 995.152100,61.884075 
	C986.319031,62.344906 983.426575,64.164978 982.557922,70.011589 
	C985.983643,69.588402 989.521545,69.151360 993.669922,68.638908 
	C990.120850,73.683395 986.937927,77.558075 984.498047,81.854744 
	C981.967773,86.310677 980.169250,91.180847 978.024963,95.858009 
	C977.380249,97.264168 976.649292,98.630791 975.997314,99.215538 
	C975.327332,96.478889 974.657349,93.742241 974.035400,90.214882 
	C970.802063,77.432022 965.905273,65.385597 957.712952,54.798126 
	C957.924194,54.362751 958.135376,53.927380 958.346619,53.492008 
	C963.948486,54.030750 969.550415,54.569492 975.387451,55.130852 
	C972.077881,47.987598 966.581665,44.637890 958.172791,46.152782 
	C958.151550,45.581161 958.130310,45.009537 958.109131,44.437916 
	C963.590820,42.367516 969.072510,40.297115 976.127258,37.632587 
	C971.173645,36.512768 967.397461,34.906395 963.679993,35.032185 
	C960.021851,35.155968 956.423035,37.036507 951.250916,38.619888 
	C955.014038,34.189388 957.910156,30.779608 960.932251,27.221451 
	C951.840759,27.108397 946.464233,31.698423 943.347656,41.930954 
	C933.908630,40.353199 929.197144,41.828865 926.856201,46.861931 
	C930.271484,47.278751 933.817993,47.711601 937.364563,48.144451 
	C927.584473,54.667259 924.826355,59.619095 927.473816,69.148529 
	C930.303223,65.492630 932.628662,62.487946 934.954041,59.483261 
	C935.322327,59.731388 935.690613,59.979511 936.058899,60.227634 
	C933.987244,67.488914 933.791870,74.348625 939.425293,80.564423 
	C940.722595,74.714592 941.849060,69.635147 942.975525,64.555702 
	C944.948608,70.340889 946.565430,75.470360 952.180420,77.485130 
	C952.180420,70.516357 952.180420,63.927456 952.180420,57.338558 
	C962.217957,66.298508 965.221985,78.205162 968.360352,90.536957 
	C968.571472,91.025475 968.782593,91.514000 968.876953,92.679047 
	C968.981506,93.120918 969.086060,93.562782 969.101135,94.814072 
	C969.472168,97.207710 969.843201,99.601341 970.095459,102.754784 
	C970.224426,103.505264 970.353333,104.255737 970.318542,105.534859 
	C970.299561,105.718346 970.280640,105.901833 970.069458,106.073456 
	C970.069458,106.073456 970.085449,106.265404 969.138000,106.313705 
	C959.446106,106.178345 949.754150,106.042984 939.763184,105.294937 
	C909.671387,87.215012 879.602661,69.096107 849.407959,51.189671 
	C848.125854,50.429310 845.245239,51.029099 843.835693,52.024178 
	C828.885925,62.578175 814.053040,73.299171 799.272766,84.090294 
	C797.006531,85.744865 795.639832,85.853516 793.376282,83.830887 
	C772.411133,65.097656 751.330383,46.492970 730.148132,28.005800 
	C729.131653,27.118683 726.340698,26.930357 725.233887,27.681129 
	C708.572083,38.983067 692.019043,50.447132 675.542725,62.018692 
	C673.206055,63.659779 671.646851,63.608517 669.445740,61.888618 
	C653.191895,49.187965 636.773315,36.696743 620.604675,23.889511 
	C617.214233,21.203964 614.833740,20.836294 611.003479,23.208614 
	C596.575073,32.145050 581.852295,40.604935 567.305725,49.353077 
	C564.546814,51.012299 562.607666,51.269871 559.888855,48.854584 
	C554.302979,43.892414 548.083923,39.648331 542.416626,34.770435 
	C538.871216,31.718811 535.832031,31.574842 531.633179,33.654926 
	C500.900574,48.879654 470.055420,63.877441 439.209045,78.871284 
	C437.743561,79.583626 435.931244,79.582420 434.184448,79.090134 
	C428.605377,41.131985 388.699432,14.996960 350.879913,24.532730 
	C321.907135,31.837889 301.226013,55.247009 298.343750,83.062561 
	C292.793640,78.107239 287.311157,73.072121 281.637085,68.263069 
	C280.484863,67.286514 278.105896,66.249817 277.143982,66.781479 
	C261.637634,75.352280 246.269150,84.172577 230.179077,93.047928 
	C224.438370,96.413498 218.697662,99.779076 212.069107,103.232689 
	C201.360672,103.232689 190.652237,103.232689 179.647949,103.232689 
	C181.144409,85.190681 183.605148,68.318924 194.210007,53.968525 
	C194.898346,54.006878 195.586685,54.045231 196.275024,54.083584 
	C196.711960,60.919979 197.148895,67.756378 197.578766,74.482086 
	C202.741028,71.509857 205.314285,66.718727 205.106644,60.313702 
	C205.505508,60.260487 205.904373,60.207275 206.303238,60.154060 
	C208.021988,65.373749 209.740738,70.593445 211.617310,76.292427 
	C216.943192,69.316757 216.328568,62.256790 213.494553,54.437099 
	C216.742905,57.156841 219.991257,59.876583 223.738998,63.014442 
	C224.825439,51.929325 219.063538,47.124405 209.762573,45.017483 
	C209.912231,44.637039 210.061890,44.256592 210.211548,43.876148 
	C214.212601,42.918724 218.213654,41.961300 223.211456,40.765362 
	C216.556137,35.791512 210.151001,35.548000 203.465729,38.449463 
	C198.942047,27.390507 191.879623,22.897985 184.275406,25.524025 
	C187.455383,28.577343 190.793137,31.782167 194.130890,34.986992 
	C182.307587,31.290447 174.700623,32.217999 170.788040,38.789547 
	C177.217133,38.377232 183.389664,38.647797 188.477509,43.804844 
	C178.396942,44.006325 172.673599,48.300518 172.379883,54.771088 
	C177.748993,53.658924 183.329697,52.502934 189.039932,51.320110 
	C185.330063,59.848255 181.615097,67.107941 179.006989,74.745598 
	C176.427551,82.299278 174.965775,90.234612 173.278610,96.948479 
	C168.081238,86.717690 162.552307,75.834282 157.338791,64.367508 
	C159.228287,62.286110 161.117798,60.204712 163.777954,58.140602 
	C164.170914,57.959045 164.920654,57.736328 164.905151,57.601898 
	C164.395798,53.186954 159.315384,48.367397 154.729385,48.000195 
	C152.914566,47.854881 151.078400,47.976353 149.251953,47.976353 
	C149.100769,47.459675 148.949585,46.942997 148.798416,46.426319 
	C153.758438,43.981686 158.718475,41.537056 163.770950,39.046856 
	C156.758698,34.454639 150.169876,37.117336 143.641739,41.046314 
	C143.419678,40.622173 143.197617,40.198036 142.975540,39.773895 
	C145.160706,36.484756 147.345856,33.195618 149.586121,29.823528 
	C140.990601,30.256516 137.039032,34.513233 135.509766,44.756790 
	C127.491608,42.823254 120.826538,45.522091 118.315636,51.600323 
	C121.629494,51.294083 125.032761,50.979580 128.436020,50.665077 
	C119.338463,57.867065 116.593086,62.739979 119.170052,67.980537 
	C121.226570,65.715576 123.307823,63.423370 125.819138,61.726109 
	C125.978409,61.911884 126.137680,62.097660 126.084312,63.004990 
	C122.612411,70.570992 123.839485,79.160461 128.598175,82.824562 
	C130.341629,76.782852 132.134293,70.570625 133.926956,64.358398 
	C134.510590,64.391937 135.094238,64.425468 135.677872,64.459007 
	C135.513840,70.410828 136.909317,75.473732 142.448715,78.340408 
	C142.937286,71.883934 143.400024,65.768845 143.862747,59.653748 
	C144.486298,59.546040 145.109833,59.438328 145.733383,59.330616 
	C159.045761,72.039703 164.155090,88.669685 167.552048,106.405342 
	C165.304810,107.442291 163.336884,108.280365 161.430634,109.240845 
	C143.234467,118.409233 133.709015,132.985474 133.755997,153.567657 
	C133.801697,173.578522 143.419754,187.438400 161.340637,195.479645 
	C170.263763,199.483521 179.672272,202.396332 188.813293,205.926712 
	C197.013657,209.093796 205.339371,212.032150 213.250275,215.821823 
	C219.328217,218.733444 222.717682,224.134506 222.548325,231.179779 
	C222.361526,238.951111 218.653030,245.121933 211.470291,247.452316 
	C205.000381,249.551422 197.805893,250.662201 191.027786,250.315567 
	C175.375061,249.515076 162.071411,242.236084 149.858551,232.836319 
	C148.458130,231.758453 147.093460,230.634171 145.468811,229.337082 
	C139.215759,238.322174 133.275940,246.857193 127.218750,255.560852 
	C140.334137,266.898071 154.946991,274.052582 171.368042,277.552399 
	C192.054901,281.961395 212.494690,282.091095 231.769302,272.109558 
	C249.443481,262.956818 258.463043,247.945618 258.613647,228.060699 
	C258.759460,208.812866 250.148132,194.383865 232.829819,185.817062 
	C224.968781,181.928452 216.576996,179.092178 208.362778,175.943359 
	C198.130386,172.020889 187.725616,168.528046 177.602768,164.347305 
	C171.367416,161.772095 168.142517,156.508011 168.368805,149.654800 
	C168.592346,142.884949 172.136627,138.089478 178.158813,135.126999 
	C186.294739,131.124710 194.929001,131.109558 203.586288,132.434372 
	C216.585541,134.423599 227.579620,140.853531 238.205170,149.108246 
	C243.690445,140.158493 249.047501,131.417953 254.577408,122.395393 
	C243.640884,113.221413 230.808609,108.376915 218.092163,103.790657 
	C225.153366,100.901695 232.214569,98.012726 240.018219,95.086884 
	C250.417892,91.232819 260.827637,87.405602 271.211365,83.509056 
	C274.525787,82.265297 277.112976,81.785820 279.555176,85.592552 
	C283.538086,91.800972 288.238892,97.548851 292.978119,103.952263 
	C296.977631,101.071251 298.717010,104.788094 300.840851,107.793289 
	C303.282074,111.247566 305.795258,114.650963 307.984558,118.703468 
	C287.467346,134.728592 275.503998,155.666412 273.582947,181.620880 
	C270.989441,216.660416 281.747772,246.363373 312.286743,266.013428 
	C338.970520,283.182922 367.968964,284.572601 397.610718,274.422363 
	C409.915314,270.208923 420.288086,262.822235 428.997650,252.863312 
	C425.088715,248.553650 421.788239,244.036850 417.620300,240.559845 
	C413.214569,236.884521 412.382965,232.952667 414.040009,227.879150 
	C414.865112,225.352859 415.094086,222.589188 416.179840,220.199646 
	C418.383057,215.350540 420.985657,210.682892 423.423584,205.940445 
	C424.015503,206.162094 424.607391,206.383728 425.199310,206.605362 
	C424.881653,210.229630 424.563995,213.853882 424.246368,217.478149 
	C424.540558,217.641312 424.834747,217.804489 425.128967,217.967667 
	C426.685669,215.545639 428.242401,213.123611 429.967773,210.439209 
	C430.489777,213.461624 430.969788,216.240936 431.449799,219.020233 
	C432.006561,219.045654 432.563354,219.071075 433.120117,219.096497 
	C433.647736,215.313538 434.175354,211.530579 434.717285,207.645050 
	C435.984436,209.182434 437.286499,210.762192 438.929108,212.755096 
	C440.930237,207.013000 437.429932,204.177994 433.749969,201.158264 
	C435.978394,200.917358 437.554901,200.746933 439.131439,200.576508 
	C439.249878,200.067627 439.368286,199.558746 439.486725,199.049866 
	C436.435333,198.178452 433.383972,197.307037 430.209564,196.400467 
	C429.010620,191.040756 427.554138,189.680161 422.333435,189.292542 
	C423.348053,190.960541 424.372864,192.645309 425.940063,195.221695 
	C419.034668,192.249390 417.978485,192.299149 414.587189,195.091156 
	C416.785614,196.087189 419.056000,197.115814 421.191162,198.083191 
	C417.938751,200.107529 415.145630,201.845978 412.352509,203.584427 
	C412.582733,203.946640 412.812958,204.308838 413.043182,204.671036 
	C415.843536,204.443405 418.643860,204.215790 420.693207,204.049210 
	C416.781586,212.761902 412.981750,221.225586 409.577057,228.809113 
	C406.423279,221.583832 402.962250,213.654648 399.260681,205.174347 
	C402.617462,206.155014 405.778442,207.078461 409.046448,208.033188 
	C408.285889,201.992615 404.072540,200.512894 399.034943,199.069458 
	C402.355774,197.594620 405.676605,196.119766 409.178680,194.564423 
	C404.601196,191.010803 400.318359,192.560120 395.607697,194.006958 
	C397.235901,192.065842 398.864105,190.124725 400.526184,188.143204 
	C394.521759,187.701370 391.844177,189.984177 390.199646,196.979904 
	C385.978638,196.434387 381.722870,196.061661 378.608429,200.900986 
	C381.083405,200.900986 383.008392,200.900986 386.269440,200.900986 
	C380.242218,203.654938 377.449280,207.282318 377.674744,212.770615 
	C378.924683,212.084793 379.665741,211.042221 380.542419,210.129974 
	C381.318481,209.322433 382.245483,208.659927 383.105835,207.933395 
	C380.426117,214.988419 380.587738,218.737473 384.119476,222.799988 
	C385.391052,219.156631 386.676422,215.473694 387.980652,211.736664 
	C389.745361,215.014297 391.154541,217.631577 393.123383,221.288391 
	C393.693298,215.750854 394.090424,211.891998 394.610077,206.842545 
	C401.818207,214.193115 403.649414,222.195374 405.767517,230.023331 
	C405.989258,230.842743 405.225677,232.252167 404.500519,232.957306 
	C383.405273,253.471649 351.399109,253.759064 331.695099,238.473068 
	C313.628265,224.457169 307.990967,205.140717 310.148834,183.366165 
	C314.210266,142.383072 351.461700,123.975380 384.267853,136.328873 
	C392.760376,139.526810 400.219666,145.468536 408.448334,150.323853 
	C413.764465,142.626450 419.617645,134.151382 426.236115,124.568222 
	C418.361389,119.579765 410.697510,114.724876 403.328156,109.269470 
	C418.980286,100.820946 434.511139,92.137428 450.315369,83.983704 
	C469.836090,73.912567 489.561096,64.235550 509.244263,54.481960 
	C517.864136,50.210560 526.598999,46.171371 536.041382,41.664082 
	C538.297485,48.119972 540.334534,54.214535 542.562988,60.238319 
	C544.225403,64.732178 545.708618,69.027046 538.405579,71.192398 
	C546.696167,75.848763 553.871094,79.878555 560.926697,83.841293 
	C564.560425,76.684784 567.135559,69.219185 571.705811,63.291908 
	C576.189331,57.477055 582.701782,53.226570 588.323792,48.289520 
	C588.686279,48.578735 589.048767,48.867950 589.411255,49.157162 
	C585.652100,56.825089 581.893005,64.493011 578.085083,72.260513 
	C586.423950,72.661072 593.125000,70.730240 597.407715,63.029720 
	C599.815308,58.700752 603.112854,54.854057 606.123962,50.876698 
	C609.761719,46.071468 613.520691,41.357944 617.619690,36.101364 
	C622.389160,43.966476 627.135742,50.822845 630.840942,58.202068 
	C633.971191,64.436234 638.802063,66.093933 645.039001,66.348076 
	C645.160767,66.292664 645.282471,66.237251 645.404236,66.181839 
	C645.269470,66.121368 645.134766,66.060905 644.824402,65.337097 
	C643.209229,63.123936 641.594055,60.910770 639.978882,58.697609 
	C643.600403,58.842808 646.884094,59.582542 649.550598,61.287506 
	C656.269592,65.583679 662.895630,70.076530 669.189758,74.965828 
	C672.680298,77.677254 675.089722,77.596703 678.638733,75.018600 
	C693.953857,63.893433 709.499023,53.084919 724.913147,42.194588 
	C731.136353,46.017334 735.977295,50.159275 735.225769,58.409370 
	C734.894653,62.043633 736.374512,65.842865 737.053040,69.685371 
	C746.427185,68.183769 739.473389,61.325104 742.113770,55.927124 
	C743.638855,58.151566 744.437134,59.886600 745.728210,61.095009 
	C750.049927,65.139893 754.125305,69.670143 759.073364,72.773376 
	C767.284729,77.923233 775.457825,82.847511 781.418457,90.784660 
	C784.381165,94.729759 787.926941,98.236923 791.226074,101.961479 
	C792.643677,101.092751 793.651733,100.518387 794.615723,99.877785 
	C811.101746,88.922882 827.555176,77.918495 844.113770,67.074486 
	C845.485657,66.176041 848.317139,65.441193 849.191650,66.168320 
	C857.814209,73.337921 869.145264,78.251465 871.125977,91.255493 
	C871.240356,92.006134 871.875122,92.677505 872.516663,93.834908 
	C873.732727,91.258827 874.742615,89.119476 876.013245,86.427834 
	C885.709351,92.556862 896.362732,96.474464 902.117188,106.270111 
	C897.015442,106.270111 891.913696,106.270111 886.752197,106.270111 
	C886.752197,163.534607 886.752197,220.050293 886.752197,276.659149 
	C894.396729,276.659149 901.690979,276.659149 909.892761,276.847229 
	C913.597351,276.782104 917.301880,276.716980 921.927917,276.828339 
	C950.148010,276.828339 978.368042,276.828339 1006.779785,276.828339 
	C1006.779785,273.237427 1006.779785,270.122742 1006.953491,266.111908 
	C1006.886719,263.071808 1006.820007,260.031738 1006.921997,256.087189 
M736.956299,276.838196 
	C747.701111,276.838196 758.445923,276.838196 769.677368,276.838196 
	C769.677368,254.778946 769.677368,233.375854 769.677368,211.545395 
	C775.799500,211.545395 781.440857,211.763046 787.054504,211.462326 
	C790.328796,211.286926 792.121033,212.404999 793.804016,215.185059 
	C805.522278,234.541138 817.392822,253.805481 829.316284,273.036163 
	C830.265198,274.566711 831.955872,276.698669 833.343323,276.730286 
	C845.920654,277.017151 858.507202,276.898346 872.056030,276.898346 
	C856.439880,252.937332 841.350342,229.784470 826.210327,206.554031 
	C827.289246,206.012283 827.874268,205.695145 828.477966,205.418839 
	C851.362122,194.944244 862.241821,175.123993 858.942688,149.911423 
	C856.076355,128.006332 840.001953,110.244904 816.340820,108.176132 
	C790.061768,105.878456 763.478333,107.062431 736.316833,106.464645 
	C735.862732,107.353195 735.408630,108.241745 734.749512,109.903435 
	C734.719177,155.130814 734.671204,200.358200 734.672424,245.585571 
	C734.672729,255.386551 734.850098,265.187531 734.887085,275.846771 
	C735.316101,276.109497 735.745117,276.372223 736.956299,276.838196 
M713.338196,228.497604 
	C713.563477,207.515137 703.406189,193.161835 684.912109,184.240662 
	C680.724915,182.220840 676.407959,180.409607 672.018494,178.882416 
	C663.065247,175.767365 653.954102,173.099045 645.042786,169.874100 
	C640.067139,168.073425 635.016968,166.059128 630.604248,163.206879 
	C620.143555,156.445541 620.639343,142.440369 631.342407,135.961899 
	C633.580200,134.607437 636.131775,133.522614 638.680969,132.970947 
	C657.688599,128.857529 674.061035,135.277985 689.310974,145.957382 
	C690.725891,146.948257 692.134216,147.948654 693.591309,148.976868 
	C699.206299,139.897552 704.542480,131.269196 710.021057,122.410439 
	C700.905273,115.067169 690.772705,109.822243 679.696899,106.484825 
	C657.781677,99.881195 635.963989,99.078079 615.051392,109.798080 
	C597.323486,118.885544 588.247131,133.709976 588.544617,153.854340 
	C588.831665,173.297379 597.968201,187.237762 615.586914,195.156250 
	C624.959473,199.368622 634.865540,202.381866 644.468506,206.097366 
	C652.361328,209.151199 660.376099,212.011078 667.939270,215.759018 
	C674.530212,219.025146 677.910522,224.814056 677.310852,232.550400 
	C676.614807,241.530853 670.175049,248.005920 659.548889,249.978973 
	C645.264404,252.631317 632.060059,249.025101 619.665405,242.273590 
	C612.982727,238.633469 606.812683,234.052368 600.194336,229.754929 
	C594.433228,238.154877 588.525940,246.767899 582.699402,255.263214 
	C582.996338,255.835175 583.084106,256.196289 583.311218,256.407806 
	C584.162781,257.200745 585.022156,257.994171 585.945374,258.700012 
	C610.194824,277.238678 637.614197,283.764862 667.423157,278.597260 
	C695.935669,273.654388 712.140137,255.627716 713.338196,228.497604 
M527.047852,208.315918 
	C546.159485,174.641098 565.271118,140.966263 584.796387,106.562622 
	C571.757507,106.562622 559.502441,106.494659 547.251587,106.692017 
	C546.274902,106.707748 545.024170,108.399979 544.412109,109.578636 
	C533.599060,130.400497 522.868225,151.265045 512.107910,172.114288 
	C511.475159,173.340271 510.743225,174.515076 509.803345,176.157867 
	C508.642059,174.046188 507.816772,172.607986 507.048920,171.139755 
	C496.560455,151.084213 485.982788,131.074127 475.689484,110.918823 
	C473.894470,107.404053 471.845612,106.310005 468.002106,106.413658 
	C457.844330,106.687569 447.673187,106.455521 437.507355,106.455132 
	C436.461578,106.455093 435.415833,106.659035 434.160065,106.790268 
	C452.859772,139.765762 471.356598,172.308792 489.717529,204.928299 
	C490.950562,207.118881 491.718872,209.881165 491.748047,212.388641 
	C491.930359,228.052795 491.840759,243.720139 491.841125,259.386414 
	C491.841278,265.018707 491.841187,270.651001 491.841187,276.505920 
	C503.748444,276.505920 515.287476,276.505920 526.936951,276.505920 
	C526.936951,253.822540 526.936951,231.497406 527.047852,208.315918 
z"/>
<path fill="#28323B" opacity="1.000000" stroke="none" 
	d="
M217.556808,104.378204 
	C230.808609,108.376915 243.640884,113.221413 254.577408,122.395393 
	C249.047501,131.417953 243.690445,140.158493 238.205170,149.108246 
	C227.579620,140.853531 216.585541,134.423599 203.586288,132.434372 
	C194.929001,131.109558 186.294739,131.124710 178.158813,135.126999 
	C172.136627,138.089478 168.592346,142.884949 168.368805,149.654800 
	C168.142517,156.508011 171.367416,161.772095 177.602768,164.347305 
	C187.725616,168.528046 198.130386,172.020889 208.362778,175.943359 
	C216.576996,179.092178 224.968781,181.928452 232.829819,185.817062 
	C250.148132,194.383865 258.759460,208.812866 258.613647,228.060699 
	C258.463043,247.945618 249.443481,262.956818 231.769302,272.109558 
	C212.494690,282.091095 192.054901,281.961395 171.368042,277.552399 
	C154.946991,274.052582 140.334137,266.898071 127.218750,255.560852 
	C133.275940,246.857193 139.215759,238.322174 145.468811,229.337082 
	C147.093460,230.634171 148.458130,231.758453 149.858551,232.836319 
	C162.071411,242.236084 175.375061,249.515076 191.027786,250.315567 
	C197.805893,250.662201 205.000381,249.551422 211.470291,247.452316 
	C218.653030,245.121933 222.361526,238.951111 222.548325,231.179779 
	C222.717682,224.134506 219.328217,218.733444 213.250275,215.821823 
	C205.339371,212.032150 197.013657,209.093796 188.813293,205.926712 
	C179.672272,202.396332 170.263763,199.483521 161.340637,195.479645 
	C143.419754,187.438400 133.801697,173.578522 133.755997,153.567657 
	C133.709015,132.985474 143.234467,118.409233 161.430634,109.240845 
	C163.336884,108.280365 165.304810,107.442291 167.552048,106.405342 
	C164.155090,88.669685 159.045761,72.039703 145.733383,59.330616 
	C145.109833,59.438328 144.486298,59.546040 143.862747,59.653748 
	C143.400024,65.768845 142.937286,71.883934 142.448715,78.340408 
	C136.909317,75.473732 135.513840,70.410828 135.677872,64.459007 
	C135.094238,64.425468 134.510590,64.391937 133.926956,64.358398 
	C132.134293,70.570625 130.341629,76.782852 128.598175,82.824562 
	C123.839485,79.160461 122.612411,70.570992 126.445930,62.477318 
	C126.801910,61.392784 126.796272,60.835922 126.790634,60.279057 
	C126.323448,60.563095 125.856262,60.847130 125.389076,61.131165 
	C123.307823,63.423370 121.226570,65.715576 119.170052,67.980537 
	C116.593086,62.739979 119.338463,57.867065 128.436020,50.665077 
	C125.032761,50.979580 121.629494,51.294083 118.315636,51.600323 
	C120.826538,45.522091 127.491608,42.823254 135.509766,44.756790 
	C137.039032,34.513233 140.990601,30.256516 149.586121,29.823528 
	C147.345856,33.195618 145.160706,36.484756 142.975540,39.773895 
	C143.197617,40.198036 143.419678,40.622173 143.641739,41.046314 
	C150.169876,37.117336 156.758698,34.454639 163.770950,39.046856 
	C158.718475,41.537056 153.758438,43.981686 148.798416,46.426319 
	C148.949585,46.942997 149.100769,47.459675 149.251953,47.976353 
	C151.078400,47.976353 152.914566,47.854881 154.729385,48.000195 
	C159.315384,48.367397 164.395798,53.186954 164.905151,57.601898 
	C164.920654,57.736328 164.170914,57.959045 163.094635,57.896133 
	C158.175903,56.814590 153.940475,55.977512 149.705032,55.140434 
	C149.627182,55.616302 149.549316,56.092175 149.471466,56.568043 
	C151.988770,59.362320 154.506088,62.156597 157.023392,64.950874 
	C162.552307,75.834282 168.081238,86.717690 173.278610,96.948479 
	C174.965775,90.234612 176.427551,82.299278 179.006989,74.745598 
	C181.615097,67.107941 185.330063,59.848255 189.039932,51.320110 
	C183.329697,52.502934 177.748993,53.658924 172.379883,54.771088 
	C172.673599,48.300518 178.396942,44.006325 188.477509,43.804844 
	C183.389664,38.647797 177.217133,38.377232 170.788040,38.789547 
	C174.700623,32.217999 182.307587,31.290447 194.130890,34.986992 
	C190.793137,31.782167 187.455383,28.577343 184.275406,25.524025 
	C191.879623,22.897985 198.942047,27.390507 203.465729,38.449463 
	C210.151001,35.548000 216.556137,35.791512 223.211456,40.765362 
	C218.213654,41.961300 214.212601,42.918724 210.211548,43.876148 
	C210.061890,44.256592 209.912231,44.637039 209.762573,45.017483 
	C219.063538,47.124405 224.825439,51.929325 223.738998,63.014442 
	C219.991257,59.876583 216.742905,57.156841 213.494553,54.437099 
	C216.328568,62.256790 216.943192,69.316757 211.617310,76.292427 
	C209.740738,70.593445 208.021988,65.373749 206.303238,60.154060 
	C205.904373,60.207275 205.505508,60.260487 205.106644,60.313702 
	C205.314285,66.718727 202.741028,71.509857 197.578766,74.482086 
	C197.148895,67.756378 196.711960,60.919979 196.275024,54.083584 
	C195.586685,54.045231 194.898346,54.006878 194.210007,53.968525 
	C183.605148,68.318924 181.144409,85.190681 179.647949,103.232689 
	C190.652237,103.232689 201.360672,103.232689 212.765167,103.429306 
	C214.826416,103.876686 216.191605,104.127441 217.556808,104.378204 
M143.034821,41.497494 
	C143.227722,41.630711 143.420609,41.763924 143.613510,41.897137 
	C143.582825,41.599533 143.552124,41.301933 143.034821,41.497494 
z"/>
<path fill="#263039" opacity="1.000000" stroke="none" 
	d="
M737.027405,106.730530 
	C763.478333,107.062431 790.061768,105.878456 816.340820,108.176132 
	C840.001953,110.244904 856.076355,128.006332 858.942688,149.911423 
	C862.241821,175.123993 851.362122,194.944244 828.477966,205.418839 
	C827.874268,205.695145 827.289246,206.012283 826.210327,206.554031 
	C841.350342,229.784470 856.439880,252.937332 872.056030,276.898346 
	C858.507202,276.898346 845.920654,277.017151 833.343323,276.730286 
	C831.955872,276.698669 830.265198,274.566711 829.316284,273.036163 
	C817.392822,253.805481 805.522278,234.541138 793.804016,215.185059 
	C792.121033,212.404999 790.328796,211.286926 787.054504,211.462326 
	C781.440857,211.763046 775.799500,211.545395 769.677368,211.545395 
	C769.677368,233.375854 769.677368,254.778946 769.677368,276.838196 
	C758.445923,276.838196 747.701111,276.838196 736.441895,276.402954 
	C735.600281,275.641296 735.273132,275.314911 734.945923,274.988525 
	C734.850098,265.187531 734.672729,255.386551 734.672424,245.585571 
	C734.671204,200.358200 734.719177,155.130814 735.276855,109.407440 
	C736.211853,108.184464 736.619629,107.457497 737.027405,106.730530 
M800.216187,184.066620 
	C801.212219,183.986069 802.220337,183.977921 803.202454,183.813995 
	C816.368896,181.616364 824.796143,171.793625 824.553223,158.957199 
	C824.300354,145.599274 816.850159,136.846817 802.854370,135.599838 
	C791.986267,134.631500 780.962830,135.406281 769.701538,135.406281 
	C769.701538,151.548584 769.701538,167.616409 769.701538,184.116989 
	C779.697876,184.116989 789.487732,184.116989 800.216187,184.066620 
z"/>
<path fill="#26313A" opacity="1.000000" stroke="none" 
	d="
M403.033630,109.869995 
	C410.697510,114.724876 418.361389,119.579765 426.236115,124.568222 
	C419.617645,134.151382 413.764465,142.626450 408.448334,150.323853 
	C400.219666,145.468536 392.760376,139.526810 384.267853,136.328873 
	C351.461700,123.975380 314.210266,142.383072 310.148834,183.366165 
	C307.990967,205.140717 313.628265,224.457169 331.695099,238.473068 
	C351.399109,253.759064 383.405273,253.471649 404.500519,232.957306 
	C405.225677,232.252167 405.989258,230.842743 405.767517,230.023331 
	C403.649414,222.195374 401.818207,214.193115 394.610077,206.842545 
	C394.090424,211.891998 393.693298,215.750854 393.123383,221.288391 
	C391.154541,217.631577 389.745361,215.014297 387.980652,211.736664 
	C386.676422,215.473694 385.391052,219.156631 384.119476,222.799988 
	C380.587738,218.737473 380.426117,214.988419 383.105835,207.933395 
	C382.245483,208.659927 381.318481,209.322433 380.542419,210.129974 
	C379.665741,211.042221 378.924683,212.084793 377.674744,212.770615 
	C377.449280,207.282318 380.242218,203.654938 386.269440,200.900986 
	C383.008392,200.900986 381.083405,200.900986 378.608429,200.900986 
	C381.722870,196.061661 385.978638,196.434387 390.199646,196.979904 
	C391.844177,189.984177 394.521759,187.701370 400.526184,188.143204 
	C398.864105,190.124725 397.235901,192.065842 395.607697,194.006958 
	C400.318359,192.560120 404.601196,191.010803 409.178680,194.564423 
	C405.676605,196.119766 402.355774,197.594620 399.034943,199.069458 
	C404.072540,200.512894 408.285889,201.992615 409.046448,208.033188 
	C405.778442,207.078461 402.617462,206.155014 399.260681,205.174347 
	C402.962250,213.654648 406.423279,221.583832 409.577057,228.809113 
	C412.981750,221.225586 416.781586,212.761902 420.693207,204.049210 
	C418.643860,204.215790 415.843536,204.443405 413.043182,204.671036 
	C412.812958,204.308838 412.582733,203.946640 412.352509,203.584427 
	C415.145630,201.845978 417.938751,200.107529 421.191162,198.083191 
	C419.056000,197.115814 416.785614,196.087189 414.587189,195.091156 
	C417.978485,192.299149 419.034668,192.249390 425.940063,195.221695 
	C424.372864,192.645309 423.348053,190.960541 422.333435,189.292542 
	C427.554138,189.680161 429.010620,191.040756 430.209564,196.400467 
	C433.383972,197.307037 436.435333,198.178452 439.486725,199.049866 
	C439.368286,199.558746 439.249878,200.067627 439.131439,200.576508 
	C437.554901,200.746933 435.978394,200.917358 433.749969,201.158264 
	C437.429932,204.177994 440.930237,207.013000 438.929108,212.755096 
	C437.286499,210.762192 435.984436,209.182434 434.717285,207.645050 
	C434.175354,211.530579 433.647736,215.313538 433.120117,219.096497 
	C432.563354,219.071075 432.006561,219.045654 431.449799,219.020233 
	C430.969788,216.240936 430.489777,213.461624 429.967773,210.439209 
	C428.242401,213.123611 426.685669,215.545639 425.128967,217.967667 
	C424.834747,217.804489 424.540558,217.641312 424.246368,217.478149 
	C424.563995,213.853882 424.881653,210.229630 425.199310,206.605362 
	C424.607391,206.383728 424.015503,206.162094 423.423584,205.940445 
	C420.985657,210.682892 418.383057,215.350540 416.179840,220.199646 
	C415.094086,222.589188 414.865112,225.352859 414.040009,227.879150 
	C412.382965,232.952667 413.214569,236.884521 417.620300,240.559845 
	C421.788239,244.036850 425.088715,248.553650 428.997650,252.863312 
	C420.288086,262.822235 409.915314,270.208923 397.610718,274.422363 
	C367.968964,284.572601 338.970520,283.182922 312.286743,266.013428 
	C281.747772,246.363373 270.989441,216.660416 273.582947,181.620880 
	C275.503998,155.666412 287.467346,134.728592 308.472961,118.387527 
	C314.088074,115.103584 319.214752,112.135590 324.696991,109.105614 
	C345.499908,100.686722 366.477264,99.157417 388.251129,104.376373 
	C393.371582,106.351776 398.202606,108.110886 403.033630,109.869995 
z"/>
<path fill="#263139" opacity="1.000000" stroke="none" 
	d="
M713.336487,228.982864 
	C712.140137,255.627716 695.935669,273.654388 667.423157,278.597260 
	C637.614197,283.764862 610.194824,277.238678 585.945374,258.700012 
	C585.022156,257.994171 584.162781,257.200745 583.311218,256.407806 
	C583.084106,256.196289 582.996338,255.835175 582.699402,255.263214 
	C588.525940,246.767899 594.433228,238.154877 600.194336,229.754929 
	C606.812683,234.052368 612.982727,238.633469 619.665405,242.273590 
	C632.060059,249.025101 645.264404,252.631317 659.548889,249.978973 
	C670.175049,248.005920 676.614807,241.530853 677.310852,232.550400 
	C677.910522,224.814056 674.530212,219.025146 667.939270,215.759018 
	C660.376099,212.011078 652.361328,209.151199 644.468506,206.097366 
	C634.865540,202.381866 624.959473,199.368622 615.586914,195.156250 
	C597.968201,187.237762 588.831665,173.297379 588.544617,153.854340 
	C588.247131,133.709976 597.323486,118.885544 615.051392,109.798080 
	C635.963989,99.078079 657.781677,99.881195 679.696899,106.484825 
	C690.772705,109.822243 700.905273,115.067169 710.021057,122.410439 
	C704.542480,131.269196 699.206299,139.897552 693.591309,148.976868 
	C692.134216,147.948654 690.725891,146.948257 689.310974,145.957382 
	C674.061035,135.277985 657.688599,128.857529 638.680969,132.970947 
	C636.131775,133.522614 633.580200,134.607437 631.342407,135.961899 
	C620.639343,142.440369 620.143555,156.445541 630.604248,163.206879 
	C635.016968,166.059128 640.067139,168.073425 645.042786,169.874100 
	C653.954102,173.099045 663.065247,175.767365 672.018494,178.882416 
	C676.407959,180.409607 680.724915,182.220840 684.912109,184.240662 
	C703.406189,193.161835 713.563477,207.515137 713.336487,228.982864 
z"/>
<path fill="#252F39" opacity="1.000000" stroke="none" 
	d="
M526.992432,208.744080 
	C526.936951,231.497406 526.936951,253.822540 526.936951,276.505920 
	C515.287476,276.505920 503.748444,276.505920 491.841187,276.505920 
	C491.841187,270.651001 491.841278,265.018707 491.841125,259.386414 
	C491.840759,243.720139 491.930359,228.052795 491.748047,212.388641 
	C491.718872,209.881165 490.950562,207.118881 489.717529,204.928299 
	C471.356598,172.308792 452.859772,139.765762 434.160065,106.790268 
	C435.415833,106.659035 436.461578,106.455093 437.507355,106.455132 
	C447.673187,106.455521 457.844330,106.687569 468.002106,106.413658 
	C471.845612,106.310005 473.894470,107.404053 475.689484,110.918823 
	C485.982788,131.074127 496.560455,151.084213 507.048920,171.139755 
	C507.816772,172.607986 508.642059,174.046188 509.803345,176.157867 
	C510.743225,174.515076 511.475159,173.340271 512.107910,172.114288 
	C522.868225,151.265045 533.599060,130.400497 544.412109,109.578636 
	C545.024170,108.399979 546.274902,106.707748 547.251587,106.692017 
	C559.502441,106.494659 571.757507,106.562622 584.796387,106.562622 
	C565.271118,140.966263 546.159485,174.641098 526.992432,208.744080 
z"/>
<path fill="#C2AD95" opacity="1.000000" stroke="none" 
	d="
M403.180908,109.569733 
	C398.202606,108.110886 393.371582,106.351776 388.623474,104.321510 
	C389.351959,103.918648 390.063477,103.919487 390.633392,103.635834 
	C404.282928,96.842499 417.936310,90.056046 431.520447,83.133888 
	C432.685059,82.540443 433.371765,81.009148 434.280457,79.913528 
	C435.931244,79.582420 437.743561,79.583626 439.209045,78.871284 
	C470.055420,63.877441 500.900574,48.879654 531.633179,33.654926 
	C535.832031,31.574842 538.871216,31.718811 542.416626,34.770435 
	C548.083923,39.648331 554.302979,43.892414 559.888855,48.854584 
	C562.607666,51.269871 564.546814,51.012299 567.305725,49.353077 
	C581.852295,40.604935 596.575073,32.145050 611.003479,23.208614 
	C614.833740,20.836294 617.214233,21.203964 620.604675,23.889511 
	C636.773315,36.696743 653.191895,49.187965 669.445740,61.888618 
	C671.646851,63.608517 673.206055,63.659779 675.542725,62.018692 
	C692.019043,50.447132 708.572083,38.983067 725.233887,27.681129 
	C726.340698,26.930357 729.131653,27.118683 730.148132,28.005800 
	C751.330383,46.492970 772.411133,65.097656 793.376282,83.830887 
	C795.639832,85.853516 797.006531,85.744865 799.272766,84.090294 
	C814.053040,73.299171 828.885925,62.578175 843.835693,52.024178 
	C845.245239,51.029099 848.125854,50.429310 849.407959,51.189671 
	C879.602661,69.096107 909.671387,87.215012 939.453003,105.725029 
	C927.107117,106.124046 915.071289,106.092979 903.035522,106.061905 
	C896.362732,96.474464 885.709351,92.556862 876.013245,86.427834 
	C874.742615,89.119476 873.732727,91.258827 872.516663,93.834908 
	C871.875122,92.677505 871.240356,92.006134 871.125977,91.255493 
	C869.145264,78.251465 857.814209,73.337921 849.191650,66.168320 
	C848.317139,65.441193 845.485657,66.176041 844.113770,67.074486 
	C827.555176,77.918495 811.101746,88.922882 794.615723,99.877785 
	C793.651733,100.518387 792.643677,101.092751 791.226074,101.961479 
	C787.926941,98.236923 784.381165,94.729759 781.418457,90.784660 
	C775.457825,82.847511 767.284729,77.923233 759.073364,72.773376 
	C754.125305,69.670143 750.049927,65.139893 745.728210,61.095009 
	C744.437134,59.886600 743.638855,58.151566 742.113770,55.927124 
	C739.473389,61.325104 746.427185,68.183769 737.053040,69.685371 
	C736.374512,65.842865 734.894653,62.043633 735.225769,58.409370 
	C735.977295,50.159275 731.136353,46.017334 724.913147,42.194588 
	C709.499023,53.084919 693.953857,63.893433 678.638733,75.018600 
	C675.089722,77.596703 672.680298,77.677254 669.189758,74.965828 
	C662.895630,70.076530 656.269592,65.583679 649.550598,61.287506 
	C646.884094,59.582542 643.600403,58.842808 639.978882,58.697609 
	C641.594055,60.910770 643.209229,63.123936 644.912231,65.668549 
	C645.000000,66.000000 645.000000,65.999390 645.000000,65.999390 
	C638.802063,66.093933 633.971191,64.436234 630.840942,58.202068 
	C627.135742,50.822845 622.389160,43.966476 617.619690,36.101364 
	C613.520691,41.357944 609.761719,46.071468 606.123962,50.876698 
	C603.112854,54.854057 599.815308,58.700752 597.407715,63.029720 
	C593.125000,70.730240 586.423950,72.661072 578.085083,72.260513 
	C581.893005,64.493011 585.652100,56.825089 589.411255,49.157162 
	C589.048767,48.867950 588.686279,48.578735 588.323792,48.289520 
	C582.701782,53.226570 576.189331,57.477055 571.705811,63.291908 
	C567.135559,69.219185 564.560425,76.684784 560.926697,83.841293 
	C553.871094,79.878555 546.696167,75.848763 538.405579,71.192398 
	C545.708618,69.027046 544.225403,64.732178 542.562988,60.238319 
	C540.334534,54.214535 538.297485,48.119972 536.041382,41.664082 
	C526.598999,46.171371 517.864136,50.210560 509.244263,54.481960 
	C489.561096,64.235550 469.836090,73.912567 450.315369,83.983704 
	C434.511139,92.137428 418.980286,100.820946 403.180908,109.569733 
z"/>
<path fill="#263039" opacity="1.000000" stroke="none" 
	d="
M975.957886,100.015541 
	C976.649292,98.630791 977.380249,97.264168 978.024963,95.858009 
	C980.169250,91.180847 981.967773,86.310677 984.498047,81.854744 
	C986.937927,77.558075 990.120850,73.683395 993.669922,68.638908 
	C989.521545,69.151360 985.983643,69.588402 982.557922,70.011589 
	C983.426575,64.164978 986.319031,62.344906 995.152100,61.884075 
	C991.271851,59.637177 987.391602,57.390278 983.740540,55.276085 
	C987.507019,52.834839 987.507019,52.834839 998.676147,55.062435 
	C997.085632,52.383503 995.867737,50.332119 994.647095,48.276115 
	C1000.568665,47.991100 1005.446655,52.990322 1005.173096,59.934917 
	C1007.862000,60.217175 1010.692139,60.050140 1013.165649,60.909397 
	C1015.463623,61.707691 1017.381165,63.600796 1019.466187,65.011879 
	C1019.281189,65.377113 1019.096252,65.742340 1018.911255,66.107574 
	C1016.426392,65.728607 1013.941528,65.349632 1009.876099,64.729607 
	C1015.104309,69.113029 1019.923523,72.363037 1018.517151,79.647163 
	C1016.203247,76.864113 1014.311584,74.588913 1012.419922,72.313705 
	C1012.020874,72.447083 1011.621765,72.580460 1011.222717,72.713829 
	C1014.664795,79.061829 1014.832336,85.109894 1010.331665,91.132347 
	C1008.891663,85.764099 1007.553101,80.774055 1006.214600,75.784004 
	C1003.776184,80.118835 1003.937378,85.272858 998.211060,87.148926 
	C998.211060,81.964966 998.211060,77.067345 998.211060,72.169716 
	C997.674866,72.013191 997.138611,71.856674 996.602417,71.700157 
	C986.739197,80.653503 983.133362,92.734261 980.421143,106.019638 
	C988.424500,106.019638 995.980347,106.019638 1003.991699,106.019638 
	C1003.991699,116.217155 1003.991699,125.904053 1003.991699,135.954437 
	C990.115417,135.954437 976.323425,135.954437 962.531494,135.954437 
	C948.908203,135.954437 935.284851,135.954437 921.361572,135.954437 
	C921.361572,149.290115 921.361572,162.200165 921.361572,175.559113 
	C946.462952,175.559113 971.526611,175.559113 996.851685,175.559113 
	C996.851685,185.245377 996.851685,194.488510 996.851685,204.251038 
	C971.720825,204.251038 946.668884,204.251038 921.079285,204.251038 
	C921.079285,209.197418 921.079285,213.642502 920.604858,218.545258 
	C916.205017,220.614258 912.279602,222.225601 908.354126,223.836945 
	C908.519226,232.401031 898.738159,231.210663 896.705078,235.991180 
	C893.396362,235.492310 890.957153,235.124542 888.362549,234.733337 
	C888.362549,229.350693 888.362549,223.454895 888.362549,217.456055 
	C890.716614,217.089508 892.734131,216.775360 895.470398,216.349319 
	C894.058838,214.623978 893.175476,213.544235 892.117920,212.251541 
	C894.673950,211.135559 896.774719,210.218338 899.869629,208.867050 
	C897.333496,207.588043 895.954895,206.892792 894.816528,206.318710 
	C895.334595,204.795273 895.805847,203.409439 896.277100,202.023621 
	C894.981567,202.242569 893.437195,203.008270 892.446411,202.557434 
	C890.792297,201.804764 888.705688,200.523285 888.227112,199.012695 
	C887.506897,196.739395 887.937805,194.073914 888.025330,191.580292 
	C888.105713,189.288879 887.731628,186.586609 888.828857,184.885086 
	C889.416321,183.974243 892.688049,184.879349 894.741455,184.795166 
	C895.860901,184.749252 896.965820,184.348785 898.195862,184.082565 
	C900.091187,187.276993 901.641968,190.556534 903.825073,193.340256 
	C905.325806,195.253891 907.548706,196.762131 909.721436,197.955139 
	C914.590820,200.628815 919.845093,200.539032 925.070862,199.147232 
	C926.565125,198.749268 927.904114,197.768585 930.199097,196.607452 
	C927.114258,195.084518 925.611450,194.342636 922.991028,193.048981 
	C925.710388,191.615662 927.299683,190.777969 929.149048,189.803192 
	C928.520935,188.591660 928.039856,186.761673 927.488770,186.740387 
	C921.963379,186.526840 916.426514,186.610535 910.494751,186.610535 
	C907.898560,181.831238 899.199036,178.424545 904.140015,169.172928 
	C899.815674,171.087570 894.363586,167.584610 893.012695,174.046707 
	C889.076782,172.793213 887.931152,170.347229 887.956909,166.741974 
	C888.065308,151.590744 887.992981,136.438293 888.022461,121.286362 
	C888.024963,120.011276 888.292236,118.736710 888.375427,118.001068 
	C893.717529,116.372971 898.463135,114.926651 903.208740,113.480339 
	C905.370850,112.249016 907.157349,108.468964 909.195923,108.327797 
	C918.590210,107.677269 928.054688,108.040955 938.958496,108.040955 
	C937.016907,112.020958 935.609558,114.905800 933.844910,118.522919 
	C935.550720,119.332962 937.948242,121.235809 940.488220,121.450180 
	C942.763184,121.642197 945.138977,119.694008 947.573730,119.207138 
	C949.952026,118.731552 952.461121,118.910118 956.217163,118.743744 
	C953.633545,115.884552 952.383484,114.501160 950.502014,112.418953 
	C953.363464,112.418953 955.202759,112.418953 957.319275,112.418953 
	C957.463318,107.760101 960.576538,107.949936 963.933228,107.901321 
	C965.991394,107.871521 968.035217,106.844574 970.085449,106.265404 
	C970.085449,106.265404 970.069458,106.073456 970.373901,106.033768 
	C970.917114,105.873772 971.156006,105.753471 971.394836,105.633171 
	C971.090637,105.424194 970.786499,105.215210 970.482300,105.006218 
	C970.353333,104.255737 970.224426,103.505264 970.510010,102.373657 
	C972.602356,101.333527 974.280151,100.674538 975.957886,100.015541 
z"/>
<path fill="#F8B654" opacity="1.000000" stroke="none" 
	d="
M434.232452,79.501831 
	C433.371765,81.009148 432.685059,82.540443 431.520447,83.133888 
	C417.936310,90.056046 404.282928,96.842499 390.633392,103.635834 
	C390.063477,103.919487 389.351959,103.918648 388.334045,104.105209 
	C366.477264,99.157417 345.499908,100.686722 324.392487,108.915894 
	C317.335358,102.298233 310.918488,95.827606 304.553223,89.306633 
	C302.640930,87.347572 300.872253,85.248306 299.037781,83.213272 
	C301.226013,55.247009 321.907135,31.837889 350.879913,24.532730 
	C388.699432,14.996960 428.605377,41.131985 434.232452,79.501831 
M336.654602,60.443588 
	C334.415710,60.655807 332.176819,60.868027 329.937927,61.080242 
	C329.996002,61.396355 330.054108,61.712467 330.112213,62.028580 
	C333.311493,62.972111 336.510803,63.915646 339.046387,64.663437 
	C343.025635,62.895229 346.750061,61.240257 350.865723,59.411430 
	C347.725739,57.553783 344.910919,57.311420 341.764465,59.501740 
	C340.554474,60.344051 338.798798,60.402451 336.654602,60.443588 
M371.760773,73.651421 
	C369.410858,73.651421 367.060944,73.651421 364.711029,73.651421 
	C364.773743,74.041054 364.836487,74.430679 364.899200,74.820312 
	C368.160767,76.059441 371.422333,77.298569 374.725098,78.553345 
	C377.003235,77.461998 379.524658,76.254112 382.046112,75.046219 
	C380.174103,74.329857 378.342804,74.493889 376.513550,74.473122 
	C375.161377,74.457771 373.811920,74.201683 371.760773,73.651421 
z"/>
<path fill="#222B33" opacity="1.000000" stroke="none" 
	d="
M969.611694,106.289551 
	C968.035217,106.844574 965.991394,107.871521 963.933228,107.901321 
	C960.576538,107.949936 957.463318,107.760101 957.319275,112.418953 
	C955.202759,112.418953 953.363464,112.418953 950.502014,112.418953 
	C952.383484,114.501160 953.633545,115.884552 956.217163,118.743744 
	C952.461121,118.910118 949.952026,118.731552 947.573730,119.207138 
	C945.138977,119.694008 942.763184,121.642197 940.488220,121.450180 
	C937.948242,121.235809 935.550720,119.332962 933.844910,118.522919 
	C935.609558,114.905800 937.016907,112.020958 938.958496,108.040955 
	C928.054688,108.040955 918.590210,107.677269 909.195923,108.327797 
	C907.157349,108.468964 905.370850,112.249016 903.208740,113.480339 
	C898.463135,114.926651 893.717529,116.372971 888.375427,118.001068 
	C888.292236,118.736710 888.024963,120.011276 888.022461,121.286362 
	C887.992981,136.438293 888.065308,151.590744 887.956909,166.741974 
	C887.931152,170.347229 889.076782,172.793213 893.012695,174.046707 
	C894.363586,167.584610 899.815674,171.087570 904.140015,169.172928 
	C899.199036,178.424545 907.898560,181.831238 910.494751,186.610535 
	C916.426514,186.610535 921.963379,186.526840 927.488770,186.740387 
	C928.039856,186.761673 928.520935,188.591660 929.149048,189.803192 
	C927.299683,190.777969 925.710388,191.615662 922.991028,193.048981 
	C925.611450,194.342636 927.114258,195.084518 930.199097,196.607452 
	C927.904114,197.768585 926.565125,198.749268 925.070862,199.147232 
	C919.845093,200.539032 914.590820,200.628815 909.721436,197.955139 
	C907.548706,196.762131 905.325806,195.253891 903.825073,193.340256 
	C901.641968,190.556534 900.091187,187.276993 898.195862,184.082565 
	C896.965820,184.348785 895.860901,184.749252 894.741455,184.795166 
	C892.688049,184.879349 889.416321,183.974243 888.828857,184.885086 
	C887.731628,186.586609 888.105713,189.288879 888.025330,191.580292 
	C887.937805,194.073914 887.506897,196.739395 888.227112,199.012695 
	C888.705688,200.523285 890.792297,201.804764 892.446411,202.557434 
	C893.437195,203.008270 894.981567,202.242569 896.277100,202.023621 
	C895.805847,203.409439 895.334595,204.795273 894.816528,206.318710 
	C895.954895,206.892792 897.333496,207.588043 899.869629,208.867050 
	C896.774719,210.218338 894.673950,211.135559 892.117920,212.251541 
	C893.175476,213.544235 894.058838,214.623978 895.470398,216.349319 
	C892.734131,216.775360 890.716614,217.089508 888.362549,217.456055 
	C888.362549,223.454895 888.362549,229.350693 888.362549,234.733337 
	C890.957153,235.124542 893.396362,235.492310 896.705078,235.991180 
	C898.738159,231.210663 908.519226,232.401031 908.354126,223.836945 
	C912.279602,222.225601 916.205017,220.614258 920.515625,219.003082 
	C920.955383,223.695206 921.010010,228.387161 920.608521,233.587677 
	C916.597351,235.926361 911.642883,235.615555 910.234131,240.850159 
	C910.082214,241.414627 907.494568,241.860840 906.304688,241.493652 
	C904.025696,240.790390 901.939270,239.462921 899.118530,238.071671 
	C898.615967,240.795151 898.571960,243.465622 897.572449,245.710632 
	C896.714233,247.638062 894.749084,250.502548 893.298950,250.487549 
	C887.210083,250.424530 887.838562,254.225128 887.984497,258.100464 
	C888.078247,260.588867 887.704895,263.140778 888.151306,265.551178 
	C888.384521,266.810181 889.792175,268.542572 890.929443,268.771973 
	C892.420410,269.072723 894.335144,268.401794 895.766968,267.607056 
	C898.031677,266.350067 900.021179,264.605499 902.177917,263.142120 
	C903.327759,262.361908 905.075500,262.036957 905.708862,260.993744 
	C908.699097,256.068939 908.913269,255.982376 912.494812,260.662720 
	C913.004395,260.246216 913.621155,259.915009 913.998901,259.406311 
	C917.520081,254.664124 921.187927,250.522675 928.127075,251.914581 
	C931.511292,252.593414 934.013245,251.095856 934.002869,247.089294 
	C934.754700,247.029877 935.506531,246.970459 936.628784,247.438690 
	C936.301575,251.601318 935.501526,255.220932 934.952881,258.878265 
	C934.708313,260.508636 934.768433,262.251251 935.061523,263.875946 
	C935.322632,265.323212 936.095703,266.678131 936.642822,268.073792 
	C935.095154,268.382385 933.547607,268.690979 932.000000,268.999756 
	C932.000000,269.000000 932.000000,269.000397 931.997375,268.583862 
	C931.247498,267.124481 930.375427,265.121552 929.773987,265.199738 
	C926.641235,265.606934 923.539917,266.424225 920.513550,267.372925 
	C919.666077,267.638611 919.228027,269.320618 918.400452,269.521362 
	C914.332703,270.508118 910.182739,271.150970 906.095215,272.064575 
	C905.059570,272.296021 904.146301,273.075073 902.888672,273.759277 
	C905.430176,274.968170 907.207642,275.813660 908.985168,276.659149 
	C901.690979,276.659149 894.396729,276.659149 886.752197,276.659149 
	C886.752197,220.050293 886.752197,163.534607 886.752197,106.270111 
	C891.913696,106.270111 897.015442,106.270111 902.576355,106.166008 
	C915.071289,106.092979 927.107117,106.124046 939.602539,106.031372 
	C949.754150,106.042984 959.446106,106.178345 969.611694,106.289551 
M907.395996,235.115295 
	C906.366089,235.294922 905.336182,235.474548 904.306274,235.654175 
	C904.537842,236.344971 904.769348,237.035767 905.000916,237.726608 
	C905.895142,237.063202 906.789368,236.399796 907.395996,235.115295 
M943.108521,110.286209 
	C942.574341,110.475616 942.040222,110.665016 941.506042,110.854424 
	C941.630859,111.129066 941.755615,111.403709 941.880432,111.678368 
	C942.430359,111.357506 942.980225,111.036652 943.108521,110.286209 
z"/>
<path fill="#C3AF97" opacity="1.000000" stroke="none" 
	d="
M298.690765,83.137917 
	C300.872253,85.248306 302.640930,87.347572 304.553223,89.306633 
	C310.918488,95.827606 317.335358,102.298233 324.036926,108.977882 
	C319.214752,112.135590 314.088074,115.103584 308.619324,118.074020 
	C305.795258,114.650963 303.282074,111.247566 300.840851,107.793289 
	C298.717010,104.788094 296.977631,101.071251 292.978119,103.952263 
	C288.238892,97.548851 283.538086,91.800972 279.555176,85.592552 
	C277.112976,81.785820 274.525787,82.265297 271.211365,83.509056 
	C260.827637,87.405602 250.417892,91.232819 239.222336,95.066818 
	C235.907440,94.343254 233.388412,93.639763 230.869400,92.936264 
	C246.269150,84.172577 261.637634,75.352280 277.143982,66.781479 
	C278.105896,66.249817 280.484863,67.286514 281.637085,68.263069 
	C287.311157,73.072121 292.793640,78.107239 298.690765,83.137917 
z"/>
<path fill="#263039" opacity="1.000000" stroke="none" 
	d="
M969.190613,94.004654 
	C969.086060,93.562782 968.981506,93.120918 969.150208,92.198074 
	C969.099182,91.146568 968.774902,90.576027 968.450623,90.005493 
	C965.221985,78.205162 962.217957,66.298508 952.180420,57.338558 
	C952.180420,63.927456 952.180420,70.516357 952.180420,77.485130 
	C946.565430,75.470360 944.948608,70.340889 942.975525,64.555702 
	C941.849060,69.635147 940.722595,74.714592 939.425293,80.564423 
	C933.791870,74.348625 933.987244,67.488914 936.058899,60.227634 
	C935.690613,59.979511 935.322327,59.731388 934.954041,59.483261 
	C932.628662,62.487946 930.303223,65.492630 927.473816,69.148529 
	C924.826355,59.619095 927.584473,54.667259 937.364563,48.144451 
	C933.817993,47.711601 930.271484,47.278751 926.856201,46.861931 
	C929.197144,41.828865 933.908630,40.353199 943.347656,41.930954 
	C946.464233,31.698423 951.840759,27.108397 960.932251,27.221451 
	C957.910156,30.779608 955.014038,34.189388 951.250916,38.619888 
	C956.423035,37.036507 960.021851,35.155968 963.679993,35.032185 
	C967.397461,34.906395 971.173645,36.512768 976.127258,37.632587 
	C969.072510,40.297115 963.590820,42.367516 958.109131,44.437916 
	C958.130310,45.009537 958.151550,45.581161 958.172791,46.152782 
	C966.581665,44.637890 972.077881,47.987598 975.387451,55.130852 
	C969.550415,54.569492 963.948486,54.030750 958.346619,53.492008 
	C958.135376,53.927380 957.924194,54.362751 957.712952,54.798126 
	C965.905273,65.385597 970.802063,77.432022 973.743347,90.805969 
	C972.031067,92.266266 970.610840,93.135468 969.190613,94.004654 
M952.506470,39.998745 
	C952.540955,39.699856 952.575439,39.400963 952.609985,39.102055 
	C952.412720,39.233963 952.215454,39.365868 952.506470,39.998745 
z"/>
<path fill="#263039" opacity="1.000000" stroke="none" 
	d="
M932.000000,268.999573 
	C933.547607,268.690979 935.095154,268.382385 936.642822,268.073792 
	C936.095703,266.678131 935.322632,265.323212 935.061523,263.875946 
	C934.768433,262.251251 934.708313,260.508636 934.952881,258.878265 
	C935.501526,255.220932 936.301575,251.601318 936.998230,247.525421 
	C953.358643,247.026550 969.720093,246.968597 986.612549,247.338776 
	C988.297180,248.508057 989.450867,249.249222 991.710999,250.701248 
	C989.273926,251.680786 987.678467,252.715210 985.980103,252.927856 
	C981.627136,253.472931 977.198120,253.442993 972.861328,254.070343 
	C970.806152,254.367645 968.956543,255.895203 966.900024,256.416931 
	C963.425110,257.298492 959.719666,257.838043 959.354187,262.351044 
	C959.083313,265.696564 959.300903,269.081604 959.300903,272.827423 
	C960.904724,272.253174 962.128174,271.815125 963.856934,271.196136 
	C960.560303,276.685608 945.829224,276.416748 942.733032,272.667725 
	C938.140076,273.553253 934.395996,274.301453 930.641113,274.991028 
	C927.435974,275.579651 924.218506,276.100830 921.006470,276.651855 
	C917.301880,276.716980 913.597351,276.782104 909.438965,276.753174 
	C907.207642,275.813660 905.430176,274.968170 902.888672,273.759277 
	C904.146301,273.075073 905.059570,272.296021 906.095215,272.064575 
	C910.182739,271.150970 914.332703,270.508118 918.400452,269.521362 
	C919.228027,269.320618 919.666077,267.638611 920.513550,267.372925 
	C923.539917,266.424225 926.641235,265.606934 929.773987,265.199738 
	C930.375427,265.121552 931.247498,267.124481 931.657288,268.589783 
	C930.709534,269.394562 930.099304,269.776886 929.489014,270.159210 
	C929.716614,270.364532 930.117188,270.770813 930.146484,270.745667 
	C930.789124,270.192474 931.390625,269.591431 932.000000,268.999573 
z"/>
<path fill="#222B33" opacity="1.000000" stroke="none" 
	d="
M921.467163,276.740112 
	C924.218506,276.100830 927.435974,275.579651 930.641113,274.991028 
	C934.395996,274.301453 938.140076,273.553253 942.733032,272.667725 
	C945.829224,276.416748 960.560303,276.685608 963.856934,271.196136 
	C962.128174,271.815125 960.904724,272.253174 959.300903,272.827423 
	C959.300903,269.081604 959.083313,265.696564 959.354187,262.351044 
	C959.719666,257.838043 963.425110,257.298492 966.900024,256.416931 
	C968.956543,255.895203 970.806152,254.367645 972.861328,254.070343 
	C977.198120,253.442993 981.627136,253.472931 985.980103,252.927856 
	C987.678467,252.715210 989.273926,251.680786 991.710999,250.701248 
	C989.450867,249.249222 988.297180,248.508057 987.073608,247.430359 
	C993.508850,247.093796 1000.014160,247.093796 1006.921997,247.093796 
	C1006.921997,250.264130 1006.921997,253.175659 1006.425964,256.539856 
	C1001.036987,256.493469 997.882141,258.658813 994.481812,262.306061 
	C991.240173,265.783112 986.378906,268.486664 981.747925,269.717529 
	C977.423584,270.866852 972.466187,269.634064 967.241577,269.428284 
	C966.906128,270.394928 966.196960,272.438354 965.533081,274.351501 
	C980.450928,277.145874 993.884033,273.524231 1006.779785,267.008087 
	C1006.779785,270.122742 1006.779785,273.237427 1006.779785,276.828339 
	C978.368042,276.828339 950.148010,276.828339 921.467163,276.740112 
M961.710083,263.553741 
	C961.988953,263.287964 962.267822,263.022217 962.546570,262.756470 
	C962.436401,262.641052 962.236450,262.419159 962.229065,262.425476 
	C961.934998,262.673492 961.658447,262.942322 961.710083,263.553741 
z"/>
<path fill="#263039" opacity="1.000000" stroke="none" 
	d="
M933.546021,246.997192 
	C934.013245,251.095856 931.511292,252.593414 928.127075,251.914581 
	C921.187927,250.522675 917.520081,254.664124 913.998901,259.406311 
	C913.621155,259.915009 913.004395,260.246216 912.494812,260.662720 
	C908.913269,255.982376 908.699097,256.068939 905.708862,260.993744 
	C905.075500,262.036957 903.327759,262.361908 902.177917,263.142120 
	C900.021179,264.605499 898.031677,266.350067 895.766968,267.607056 
	C894.335144,268.401794 892.420410,269.072723 890.929443,268.771973 
	C889.792175,268.542572 888.384521,266.810181 888.151306,265.551178 
	C887.704895,263.140778 888.078247,260.588867 887.984497,258.100464 
	C887.838562,254.225128 887.210083,250.424530 893.298950,250.487549 
	C894.749084,250.502548 896.714233,247.638062 897.572449,245.710632 
	C898.571960,243.465622 898.615967,240.795151 899.118530,238.071671 
	C901.939270,239.462921 904.025696,240.790390 906.304688,241.493652 
	C907.494568,241.860840 910.082214,241.414627 910.234131,240.850159 
	C911.642883,235.615555 916.597351,235.926361 920.521606,234.046539 
	C920.890869,238.091568 920.890869,242.186325 920.890869,246.905075 
	C925.287781,246.905075 929.188477,246.905075 933.546021,246.997192 
z"/>
<path fill="#263039" opacity="1.000000" stroke="none" 
	d="
M1006.866638,266.559998 
	C993.884033,273.524231 980.450928,277.145874 965.533081,274.351501 
	C966.196960,272.438354 966.906128,270.394928 967.241577,269.428284 
	C972.466187,269.634064 977.423584,270.866852 981.747925,269.717529 
	C986.378906,268.486664 991.240173,265.783112 994.481812,262.306061 
	C997.882141,258.658813 1001.036987,256.493469 1006.341553,256.992096 
	C1006.820007,260.031738 1006.886719,263.071808 1006.866638,266.559998 
z"/>
<path fill="#C4B49F" opacity="1.000000" stroke="none" 
	d="
M230.524231,92.992096 
	C233.388412,93.639763 235.907440,94.343254 238.851105,95.085258 
	C232.214569,98.012726 225.153366,100.901695 217.824493,104.084427 
	C216.191605,104.127441 214.826416,103.876686 213.209076,103.385292 
	C218.697662,99.779076 224.438370,96.413498 230.524231,92.992096 
z"/>
<path fill="#E9EBEB" opacity="1.000000" stroke="none" 
	d="
M157.181091,64.659195 
	C154.506088,62.156597 151.988770,59.362320 149.471466,56.568043 
	C149.549316,56.092175 149.627182,55.616302 149.705032,55.140434 
	C153.940475,55.977512 158.175903,56.814590 162.709320,57.887489 
	C161.117798,60.204712 159.228287,62.286110 157.181091,64.659195 
z"/>
<path fill="#222B33" opacity="1.000000" stroke="none" 
	d="
M969.145874,94.409370 
	C970.610840,93.135468 972.031067,92.266266 973.719360,91.201324 
	C974.657349,93.742241 975.327332,96.478889 975.977600,99.615540 
	C974.280151,100.674538 972.602356,101.333527 970.569458,101.993744 
	C969.843201,99.601341 969.472168,97.207710 969.145874,94.409370 
z"/>
<path fill="#1C252C" opacity="1.000000" stroke="none" 
	d="
M736.672119,106.597580 
	C736.619629,107.457497 736.211853,108.184464 735.379333,109.020866 
	C735.408630,108.241745 735.862732,107.353195 736.672119,106.597580 
z"/>
<path fill="#222B33" opacity="1.000000" stroke="none" 
	d="
M968.405518,90.271225 
	C968.774902,90.576027 969.099182,91.146568 969.208618,91.859818 
	C968.782593,91.514000 968.571472,91.025475 968.405518,90.271225 
z"/>
<path fill="#222B33" opacity="1.000000" stroke="none" 
	d="
M970.400391,105.270538 
	C970.786499,105.215210 971.090637,105.424194 971.394836,105.633171 
	C971.156006,105.753471 970.917114,105.873772 970.469971,106.039703 
	C970.280640,105.901833 970.299561,105.718346 970.400391,105.270538 
z"/>
<path fill="#1C252C" opacity="1.000000" stroke="none" 
	d="
M734.916504,275.417664 
	C735.273132,275.314911 735.600281,275.641296 736.050781,276.301331 
	C735.745117,276.372223 735.316101,276.109497 734.916504,275.417664 
z"/>
<path fill="#C2AD95" opacity="1.000000" stroke="none" 
	d="
M645.000000,66.000214 
	C645.134766,66.060905 645.269470,66.121368 645.404236,66.181839 
	C645.282471,66.237251 645.160767,66.292664 645.019531,66.173737 
	C645.000000,65.999390 645.000000,66.000000 645.000000,66.000214 
z"/>
<path fill="#F8F9F8" opacity="1.000000" stroke="none" 
	d="
M125.604111,61.428635 
	C125.856262,60.847130 126.323448,60.563095 126.790634,60.279057 
	C126.796272,60.835922 126.801910,61.392784 126.552246,62.116543 
	C126.137680,62.097660 125.978409,61.911884 125.604111,61.428635 
z"/>
<path fill="#F8F9F8" opacity="1.000000" stroke="none" 
	d="
M143.278122,41.250912 
	C143.552124,41.301933 143.582825,41.599533 143.613510,41.897137 
	C143.420609,41.763924 143.227722,41.630711 143.278122,41.250912 
z"/>
<path fill="#F7F7F7" opacity="1.000000" stroke="none" 
	d="
M799.746826,184.091797 
	C789.487732,184.116989 779.697876,184.116989 769.701538,184.116989 
	C769.701538,167.616409 769.701538,151.548584 769.701538,135.406281 
	C780.962830,135.406281 791.986267,134.631500 802.854370,135.599838 
	C816.850159,136.846817 824.300354,145.599274 824.553223,158.957199 
	C824.796143,171.793625 816.368896,181.616364 803.202454,183.813995 
	C802.220337,183.977921 801.212219,183.986069 799.746826,184.091797 
z"/>
<path fill="#F5F0DD" opacity="1.000000" stroke="none" 
	d="
M336.973175,60.630810 
	C338.798798,60.402451 340.554474,60.344051 341.764465,59.501740 
	C344.910919,57.311420 347.725739,57.553783 350.865723,59.411430 
	C346.750061,61.240257 343.025635,62.895229 339.046387,64.663437 
	C336.510803,63.915646 333.311493,62.972111 330.112213,62.028580 
	C330.054108,61.712467 329.996002,61.396355 329.937927,61.080242 
	C332.176819,60.868027 334.415710,60.655807 336.973175,60.630810 
z"/>
<path fill="#F2EDD9" opacity="1.000000" stroke="none" 
	d="
M372.111023,73.852127 
	C373.811920,74.201683 375.161377,74.457771 376.513550,74.473122 
	C378.342804,74.493889 380.174103,74.329857 382.046112,75.046219 
	C379.524658,76.254112 377.003235,77.461998 374.725098,78.553345 
	C371.422333,77.298569 368.160767,76.059441 364.899200,74.820312 
	C364.836487,74.430679 364.773743,74.041054 364.711029,73.651421 
	C367.060944,73.651421 369.410858,73.651421 372.111023,73.852127 
z"/>
<path fill="#263039" opacity="1.000000" stroke="none" 
	d="
M907.539795,235.425842 
	C906.789368,236.399796 905.895142,237.063202 905.000916,237.726593 
	C904.769348,237.035767 904.537842,236.344971 904.306274,235.654175 
	C905.336182,235.474548 906.366089,235.294922 907.539795,235.425842 
z"/>
<path fill="#263039" opacity="1.000000" stroke="none" 
	d="
M943.319336,110.500999 
	C942.980225,111.036652 942.430359,111.357506 941.880432,111.678360 
	C941.755615,111.403709 941.630859,111.129066 941.506042,110.854416 
	C942.040222,110.665016 942.574341,110.475616 943.319336,110.500999 
z"/>
<path fill="#F8F9F8" opacity="1.000000" stroke="none" 
	d="
M952.262329,39.748260 
	C952.215454,39.365868 952.412720,39.233963 952.609985,39.102066 
	C952.575439,39.400963 952.540955,39.699856 952.262329,39.748260 
z"/>
<path fill="#222B33" opacity="1.000000" stroke="none" 
	d="
M932.000000,268.999786 
	C931.390625,269.591431 930.789124,270.192474 930.146484,270.745667 
	C930.117188,270.770813 929.716614,270.364532 929.489014,270.159210 
	C930.099304,269.776886 930.709534,269.394562 931.659912,269.006317 
	C932.000000,269.000397 932.000000,269.000000 932.000000,268.999786 
z"/>
<path fill="#263039" opacity="1.000000" stroke="none" 
	d="
M961.544861,263.381073 
	C961.658447,262.942322 961.934998,262.673492 962.229065,262.425476 
	C962.236450,262.419159 962.436401,262.641052 962.546631,262.756470 
	C962.267822,263.022217 961.988953,263.287964 961.544861,263.381073 
z"/>
</svg>