<?xml version="1.0" standalone="no"?>
<!DOCTYPE svg PUBLIC "-//W3C//DTD SVG 20010904//EN"
 "http://www.w3.org/TR/2001/REC-SVG-20010904/DTD/svg10.dtd">
<svg version="1.0" xmlns="http://www.w3.org/2000/svg"
 width="1126.000000pt" height="300.000000pt" viewBox="0 0 1126.000000 300.000000"
 preserveAspectRatio="xMidYMid meet">

<g transform="translate(0.000000,300.000000) scale(0.100000,-0.100000)"
fill="#000000" stroke="none">
<path d="M1857 2731 c37 -27 83 -80 83 -95 0 -4 -13 3 -28 14 -41 30 -103 36
-156 16 -71 -27 -75 -42 -11 -43 37 -1 68 -9 96 -25 l42 -23 -44 -5 c-50 -6
-84 -26 -110 -67 -30 -46 -24 -54 24 -33 23 11 63 20 89 20 l46 0 -38 -67
c-47 -81 -94 -219 -111 -325 -7 -43 -17 -78 -21 -78 -4 0 -8 7 -8 16 0 25 -69
184 -112 258 -23 39 -59 89 -80 112 -30 33 -35 43 -23 48 14 5 72 -4 123 -19
34 -11 27 12 -18 57 -38 38 -43 40 -88 35 l-47 -5 40 34 c21 19 59 40 84 46
40 10 42 12 26 25 -21 15 -92 17 -127 4 -13 -5 -33 -19 -45 -30 -12 -12 -25
-21 -28 -21 -11 0 27 76 52 103 l27 27 -25 0 c-56 0 -119 -68 -119 -129 0 -16
-5 -18 -38 -14 -41 5 -105 -20 -132 -52 -18 -22 -10 -26 32 -15 23 7 44 7 59
1 13 -5 18 -10 11 -10 -26 -2 -72 -43 -92 -81 -36 -70 -20 -110 18 -47 12 17
35 41 53 51 l32 19 -29 -38 c-24 -32 -29 -48 -28 -94 0 -34 8 -72 19 -96 l19
-39 7 29 c25 111 32 133 49 160 l20 30 0 -41 c0 -42 32 -103 59 -112 11 -4 13
3 8 32 -7 41 11 156 23 156 5 0 27 -21 50 -47 57 -67 126 -212 155 -328 13
-55 23 -100 22 -100 -1 -1 -33 -16 -71 -34 -85 -42 -181 -134 -217 -211 -40
-84 -52 -151 -47 -254 9 -147 59 -246 167 -326 73 -55 148 -89 356 -160 94
-32 191 -67 216 -78 179 -78 197 -268 32 -349 -53 -25 -67 -28 -158 -27 -151
1 -280 48 -428 155 -37 27 -69 49 -72 49 -3 0 -147 -202 -168 -238 -27 -44
209 -182 384 -225 173 -43 373 -48 504 -13 226 61 382 225 404 425 18 169 -27
310 -129 405 -79 73 -190 127 -402 197 -290 95 -349 132 -364 225 -13 82 41
155 137 189 54 19 197 19 269 0 70 -18 186 -76 244 -120 33 -25 47 -31 54 -22
5 7 42 66 82 131 l73 120 -34 29 c-49 41 -199 112 -304 143 -79 23 -109 26
-249 28 l-158 1 6 75 c12 141 61 303 116 380 12 17 25 30 29 30 15 0 32 -108
25 -161 l-7 -54 28 25 c35 33 48 56 55 105 l5 40 22 -55 c11 -30 25 -71 30
-90 l9 -35 17 32 c21 40 22 118 2 157 -8 15 -15 31 -15 33 0 8 52 -27 82 -55
34 -32 42 -25 33 27 -6 39 -53 101 -75 101 -5 0 -21 5 -37 11 l-28 11 29 15
c16 8 44 15 63 15 39 0 40 16 2 35 -28 15 -118 17 -139 3 -12 -7 -19 1 -36 39
-17 38 -31 52 -66 70 -24 11 -62 21 -83 21 l-38 0 40 -29z"/>
<path d="M9524 2721 c-47 -21 -80 -59 -89 -102 -7 -29 -9 -30 -45 -24 -28 5
-51 1 -84 -14 -54 -23 -59 -41 -13 -41 67 0 101 -22 53 -34 -36 -9 -83 -69
-91 -115 -11 -63 2 -66 52 -11 50 55 70 65 47 23 -21 -42 -18 -122 8 -163 l21
-35 14 69 c8 39 20 80 27 93 11 22 12 21 13 -17 2 -43 31 -93 65 -111 19 -10
19 -9 11 23 -9 38 -9 165 0 175 24 24 114 -143 147 -272 11 -44 23 -110 27
-147 l6 -68 -315 0 c-173 0 -362 -3 -419 -6 l-104 -7 3 -848 2 -849 600 0 600
0 0 150 0 150 -430 0 -430 0 0 215 0 215 380 0 380 0 0 140 0 140 -380 0 -380
0 0 200 0 200 415 0 415 0 0 150 0 150 -119 0 -119 0 14 63 c19 83 83 214 125
256 l34 34 8 -39 c5 -21 6 -58 4 -81 -3 -24 -1 -43 4 -43 18 0 49 55 49 89 l1
36 19 -23 c11 -13 22 -40 25 -60 16 -98 24 -102 46 -22 11 40 10 51 -9 93 -20
45 -20 47 -2 37 10 -6 27 -24 37 -40 23 -39 37 -38 29 3 -3 20 -21 46 -48 71
l-43 39 48 -6 c35 -5 48 -4 45 5 -7 21 -72 49 -105 45 -30 -3 -33 0 -33 23 0
33 -23 66 -60 85 -47 24 -54 17 -21 -20 39 -45 43 -76 6 -46 -37 28 -77 34
-116 18 l-34 -14 31 -7 c18 -4 49 -22 69 -39 l38 -33 -42 4 c-36 4 -47 0 -72
-24 -34 -33 -40 -61 -10 -44 11 5 38 10 61 10 l42 0 -36 -41 c-41 -48 -108
-174 -127 -238 l-13 -43 -22 88 c-30 122 -78 243 -125 313 -21 32 -39 61 -39
63 0 13 76 15 120 4 64 -17 66 -3 9 49 -39 35 -45 37 -90 33 -27 -3 -49 -4
-49 -2 0 12 74 51 124 65 l61 17 -37 16 c-52 22 -114 20 -154 -5 -19 -11 -34
-25 -34 -30 0 -5 -4 -9 -9 -9 -19 0 3 42 46 90 50 56 41 64 -33 31z"/>
<path d="M3503 1989 c-212 -27 -383 -110 -525 -252 -202 -203 -290 -486 -244
-783 54 -353 272 -606 613 -711 81 -25 102 -27 268 -27 208 -1 264 10 410 78
88 41 188 112 232 164 l22 25 -82 89 -81 89 13 61 c18 90 47 159 81 198 l31
35 -5 -63 c-4 -61 -4 -63 14 -47 10 9 21 28 25 43 5 20 8 23 16 11 5 -7 9 -29
9 -46 0 -35 14 -44 24 -17 3 9 6 37 6 62 l0 47 25 -30 24 -30 0 30 c1 35 -5
45 -39 68 l-24 17 32 0 c17 0 32 4 32 10 0 15 -40 32 -66 27 -19 -3 -24 0 -24
15 0 23 -43 68 -65 68 -14 0 -13 -4 4 -26 28 -36 26 -50 -4 -30 -25 17 -52 20
-79 10 -20 -8 -11 -24 13 -24 10 0 26 -9 36 -20 18 -20 17 -20 -12 -20 -26 0
-63 -25 -63 -42 0 -3 21 -3 47 0 l46 5 -20 -29 c-33 -47 -70 -126 -88 -189
l-17 -59 -27 80 c-31 90 -45 120 -73 150 -27 30 -9 38 43 20 24 -8 45 -13 48
-10 3 2 -4 17 -16 32 -14 19 -32 29 -59 32 l-39 5 25 17 c14 10 40 23 58 29
18 6 29 15 26 20 -9 15 -88 10 -112 -7 -32 -22 -28 2 7 37 l29 29 -24 0 c-30
0 -74 -41 -74 -70 0 -17 -6 -20 -42 -20 -39 -1 -78 -17 -78 -34 0 -3 17 -6 38
-7 20 0 30 -3 22 -6 -25 -9 -58 -43 -71 -74 -17 -42 -4 -47 26 -10 15 17 31
31 37 31 7 0 6 -5 -1 -14 -21 -25 -30 -74 -20 -111 12 -41 29 -47 29 -10 0 14
9 44 20 65 21 42 36 54 25 20 -6 -19 19 -80 33 -80 5 0 8 23 8 50 0 28 5 55
11 61 18 18 65 -57 93 -146 l24 -78 -48 -43 c-165 -145 -419 -176 -624 -76
-128 61 -240 209 -277 363 -19 83 -19 248 0 324 49 193 183 338 365 396 90 28
240 28 330 0 66 -21 165 -75 210 -115 60 -53 51 -58 144 77 47 69 86 129 86
134 0 14 -144 115 -210 148 -155 78 -344 108 -527 84z"/>
<path d="M6315 1974 c-151 -33 -310 -136 -372 -241 -42 -73 -63 -155 -63 -253
0 -197 85 -332 267 -424 28 -14 138 -55 243 -91 318 -109 372 -147 372 -265 0
-66 -27 -117 -80 -151 -146 -93 -402 -45 -620 115 -34 25 -64 46 -66 46 -7 0
-176 -247 -176 -257 0 -16 117 -94 207 -139 51 -25 137 -57 190 -71 86 -23
118 -26 263 -27 179 -1 263 15 369 68 170 87 271 250 271 440 0 276 -133 411
-534 537 -264 84 -346 132 -362 214 -14 79 22 147 100 187 51 27 201 37 285
18 69 -15 200 -76 266 -124 l49 -36 17 28 c10 15 47 74 83 132 l66 105 -27 23
c-50 40 -226 122 -318 148 -117 33 -323 42 -430 18z"/>
<path d="M4335 1942 c-2 -2 34 -67 79 -145 46 -78 176 -307 289 -508 l207
-367 0 -341 0 -341 175 0 175 0 0 346 0 346 59 101 c94 163 511 899 511 903 0
2 -87 4 -194 4 -148 0 -195 -3 -198 -13 -5 -20 -343 -677 -348 -677 -3 0 -29
46 -58 103 -29 56 -110 211 -180 344 l-127 242 -193 3 c-107 2 -195 2 -197 0z"/>
<path d="M7340 1090 l0 -850 170 0 170 0 2 327 3 328 108 3 107 3 43 -68 c23
-37 114 -184 202 -328 l160 -260 203 -3 c192 -2 202 -1 192 15 -6 10 -109 169
-230 353 l-219 334 60 32 c179 96 269 246 269 448 0 105 -22 199 -64 270 -40
69 -126 148 -198 184 -118 58 -153 62 -585 62 l-393 0 0 -850z m777 536 c63
-35 98 -83 113 -153 23 -108 -23 -215 -117 -270 -47 -28 -50 -28 -240 -31
l-193 -4 0 247 0 247 193 -4 c190 -3 193 -3 244 -32z"/>
</g>
</svg>
